<svg 
 xmlns="http://www.w3.org/2000/svg"
 xmlns:xlink="http://www.w3.org/1999/xlink"
 width="1453px" height="1022px">
<path fill-rule="evenodd"  stroke="rgb(39, 222, 191)" stroke-width="1px" stroke-linecap="butt" stroke-linejoin="miter" opacity="0.502" fill="none"
 d="M891.958,536.244 C906.692,609.412 923.570,651.294 978.517,668.253 C1049.772,690.246 1050.478,825.661 951.179,838.482 C899.257,845.184 863.928,832.621 835.559,867.828 C784.967,930.631 746.246,883.172 739.055,854.084 C712.463,746.536 649.742,775.706 602.582,716.309 C574.810,681.346 601.971,641.350 653.649,632.043 C732.570,617.837 751.116,571.804 757.425,549.716 C772.661,496.397 877.224,463.062 891.958,536.244 Z"/>
<path fill-rule="evenodd"  stroke="rgb(39, 222, 191)" stroke-width="1px" stroke-linecap="butt" stroke-linejoin="miter" opacity="0.502" fill="none"
 d="M257.040,495.244 C256.281,569.878 282.140,567.259 337.074,584.218 C408.329,606.211 415.682,845.591 316.383,858.413 C264.462,865.115 251.776,794.456 210.355,844.167 C160.156,904.405 86.215,880.663 91.072,810.344 C93.446,775.937 103.513,742.616 62.133,741.137 C-11.686,738.505 -28.700,633.644 71.291,601.177 C149.642,575.739 121.042,527.100 114.367,486.873 C98.086,388.849 258.180,383.762 257.040,495.244 Z"/>
<path fill-rule="evenodd"  opacity="0.502" fill="rgb(255, 231, 204)"
 d="M1393.646,901.683 C1393.646,901.683 1321.489,1023.588 1113.791,996.112 C906.093,968.636 862.623,926.876 875.871,800.322 C889.119,673.768 1012.519,657.005 846.300,518.972 C680.081,380.938 336.164,284.339 725.931,95.454 C1115.698,-93.430 1419.928,22.512 1443.584,247.592 C1467.241,472.672 1393.646,901.683 1393.646,901.683 Z"/>
<path fill-rule="evenodd"  fill="rgb(39, 222, 191)"
 d="M937.890,762.665 C1021.067,800.640 1155.931,800.640 1239.117,762.665 C1322.294,724.690 1322.294,663.115 1239.117,625.140 C1155.940,587.165 1021.067,587.165 937.890,625.140 C854.703,663.115 854.703,724.690 937.890,762.665 Z"/>
<path fill-rule="evenodd"  fill="rgb(224, 224, 224)"
 d="M1240.116,724.282 C1217.581,724.282 1199.366,713.767 1199.366,700.759 C1199.366,687.751 1217.581,677.236 1240.116,677.236 C1262.651,677.236 1280.866,687.751 1280.866,700.759 C1280.866,713.767 1262.651,724.282 1240.116,724.282 Z"/>
<path fill-rule="evenodd"  fill="rgb(39, 222, 191)"
 d="M978.854,494.056 C974.865,496.364 971.615,502.551 971.615,507.880 C971.615,512.624 974.203,515.085 977.581,513.930 L977.581,614.626 L940.879,537.615 C940.268,536.325 940.242,534.229 940.802,532.914 C950.069,511.470 956.909,487.310 959.243,462.522 C959.378,461.105 960.473,459.365 961.703,458.652 L995.987,438.855 C997.226,438.142 998.329,438.719 998.482,440.136 C1000.782,461.580 1007.350,477.491 1016.243,488.193 C1017.160,489.287 1017.601,491.247 1017.185,492.614 C1012.026,509.382 982.291,606.089 980.127,613.149 L980.127,512.454 C983.521,509.696 986.092,504.265 986.092,499.521 C986.084,494.184 982.851,491.748 978.854,494.056 Z"/>
<path fill-rule="evenodd"  fill="rgb(39, 222, 191)"
 d="M1033.979,502.313 L996.921,622.849 L994.392,621.381 L994.392,624.317 L977.581,614.626 L940.879,537.615 C940.268,536.325 940.242,534.229 940.802,532.914 C950.069,511.470 956.909,487.310 959.243,462.522 C959.378,461.105 960.473,459.365 961.704,458.652 L995.987,438.855 C997.226,438.142 999.229,438.142 1000.459,438.855 L1012.781,445.965 C1014.020,446.678 1015.123,448.410 1015.276,449.827 C1017.576,471.279 1024.144,487.191 1033.037,497.892 C1033.954,498.995 1034.403,500.947 1033.979,502.313 Z"/>
<path fill-rule="evenodd"  opacity="0.149" fill="rgb(0, 0, 0)"
 d="M1002.886,509.212 C1002.886,513.964 1000.315,519.396 996.921,522.145 L996.921,622.840 L994.392,621.372 L994.392,624.309 L994.392,523.613 C990.997,524.767 988.426,522.323 988.426,517.579 C988.426,512.250 991.659,506.055 995.665,503.747 C999.653,501.439 1002.886,503.891 1002.886,509.212 Z"/>
<path fill-rule="evenodd"  fill="rgb(39, 222, 191)"
 d="M1033.979,502.313 L996.921,622.849 L996.921,522.145 C1000.315,519.395 1002.886,513.973 1002.886,509.212 C1002.886,503.891 999.653,501.439 995.665,503.747 C991.668,506.055 988.426,512.242 988.426,517.579 C988.426,522.323 990.997,524.776 994.392,523.613 L994.392,624.309 L957.681,547.315 C957.070,546.025 957.036,543.929 957.605,542.613 C966.871,521.169 973.720,497.009 976.053,472.213 C976.189,470.796 977.284,469.056 978.514,468.343 L1012.789,448.554 C1014.029,447.841 1015.132,448.418 1015.276,449.835 C1017.576,471.288 1024.144,487.199 1033.037,497.900 C1033.954,498.995 1034.403,500.947 1033.979,502.313 Z"/>
<path fill-rule="evenodd"  opacity="0.251" fill="rgb(69, 90, 100)"
 d="M976.741,470.236 C976.359,470.864 976.113,471.577 976.045,472.213 C973.720,497.009 966.863,521.169 957.596,542.613 C957.299,543.326 957.163,544.268 957.206,545.185 L940.412,535.485 C940.370,534.569 940.505,533.618 940.802,532.897 C950.078,511.453 956.917,487.293 959.243,462.505 C959.302,461.860 959.565,461.164 959.947,460.519 L976.741,470.236 Z"/>
<path fill-rule="evenodd"  opacity="0.149" fill="rgb(69, 90, 100)"
 d="M1015.217,433.471 C1014.936,432.316 1013.918,431.901 1012.798,432.554 L978.514,452.352 C977.835,452.742 977.199,453.446 976.749,454.244 L959.955,444.536 C960.414,443.747 961.042,443.051 961.712,442.652 L995.996,422.855 C997.235,422.142 999.237,422.142 1000.485,422.855 L1012.798,429.965 C1013.927,430.619 1014.945,432.130 1015.217,433.471 Z"/>
<path fill-rule="evenodd"  fill="rgb(39, 222, 191)"
 d="M951.707,427.908 L1006.009,396.552 C1007.248,395.839 1009.251,395.839 1010.481,396.552 L1022.803,403.671 C1024.042,404.384 1025.043,406.124 1025.043,407.549 L1025.043,431.472 C1025.043,432.897 1024.042,434.637 1022.803,435.349 L968.501,466.705 C967.262,467.418 965.259,467.418 964.029,466.705 L951.707,459.586 C950.468,458.873 949.467,457.133 949.467,455.708 L949.467,431.785 C949.467,430.360 950.468,428.620 951.707,427.908 Z"/>
<path fill-rule="evenodd"  opacity="0.4" fill="rgb(255, 255, 255)"
 d="M1025.026,407.185 C1024.874,406.030 1023.932,405.606 1022.803,406.251 L968.509,437.598 C967.890,437.946 967.330,438.566 966.931,439.270 L950.120,429.571 C950.536,428.866 951.096,428.247 951.715,427.899 L1006.009,396.534 C1007.248,395.822 1009.242,395.822 1010.481,396.534 L1022.803,403.654 C1023.940,404.325 1024.882,405.844 1025.026,407.185 Z"/>
<path fill-rule="evenodd"  opacity="0.149" fill="rgb(0, 0, 0)"
 d="M968.144,466.875 C968.127,466.884 968.110,466.884 968.093,466.892 C968.051,466.901 968.009,466.926 967.958,466.935 C967.915,466.969 967.864,466.977 967.813,466.994 C967.737,467.028 967.669,467.045 967.593,467.053 C967.508,467.070 967.415,467.096 967.321,467.113 C967.270,467.122 967.211,467.130 967.135,467.147 C967.007,467.164 966.880,467.189 966.753,467.198 C965.794,467.291 964.767,467.122 964.020,466.688 L951.698,459.577 C950.459,458.865 949.458,457.125 949.458,455.699 L949.458,431.768 C949.458,431.056 949.704,430.267 950.111,429.571 L966.922,439.270 C966.507,439.974 966.260,440.755 966.260,441.468 L966.260,465.399 C966.260,466.409 966.770,467.003 967.499,467.003 C967.601,467.003 967.703,466.994 967.822,466.960 C967.924,466.952 968.034,466.918 968.144,466.875 Z"/>
<path fill-rule="evenodd"  opacity="0.149" fill="rgb(0, 0, 0)"
 d="M994.392,624.309 L977.581,614.617 L940.887,537.615 C940.607,537.030 940.454,536.274 940.412,535.494 L957.206,545.193 C957.240,545.965 957.401,546.729 957.681,547.323 L994.392,624.309 Z"/>
<path fill-rule="evenodd"  opacity="0.149" fill="rgb(0, 0, 0)"
 d="M996.921,522.145 L996.921,622.840 L994.392,621.372 L994.392,624.309 L994.392,523.613 C990.997,524.767 988.426,522.323 988.426,517.579 C988.426,517.469 988.426,517.359 988.434,517.249 L996.921,522.145 Z"/>
<path fill-rule="evenodd"  fill="rgb(69, 90, 100)"
 d="M1074.542,493.191 C1074.542,490.458 1072.625,489.346 1070.257,490.713 C1067.890,492.079 1065.972,495.406 1065.972,498.138 C1065.972,500.353 1067.236,501.473 1068.976,501.108 C1066.557,551.694 1031.153,611.308 987.959,636.240 C966.498,648.630 946.378,650.666 931.306,641.968 C917.075,633.754 908.886,616.841 908.021,594.107 C909.786,592.478 911.084,589.855 911.084,587.615 C911.084,584.882 909.166,583.771 906.799,585.137 C904.431,586.503 902.513,589.830 902.513,592.562 C902.513,594.896 903.913,596.033 905.797,595.464 C906.951,618.369 915.505,635.468 930.169,643.937 C936.678,647.696 944.052,649.563 952.029,649.563 C963.426,649.563 976.045,645.753 989.105,638.218 C1033.292,612.708 1069.442,551.422 1071.318,499.844 C1073.159,498.223 1074.542,495.499 1074.542,493.191 Z"/>
<path fill-rule="evenodd"  fill="rgb(69, 90, 100)"
 d="M1070.257,585.298 C1068.288,586.435 1066.642,588.930 1066.141,591.315 L910.855,680.970 C910.303,679.290 908.700,678.764 906.790,679.867 C904.423,681.233 902.505,684.560 902.505,687.292 C902.505,690.025 904.423,691.137 906.790,689.770 C908.818,688.599 910.507,685.994 910.957,683.550 L1066.141,593.954 C1066.642,595.753 1068.288,596.347 1070.257,595.210 C1072.625,593.844 1074.542,590.517 1074.542,587.785 C1074.542,585.044 1072.625,583.932 1070.257,585.298 Z"/>
<path fill-rule="evenodd"  fill="rgb(69, 90, 100)"
 d="M912.781,590.025 C912.781,593.394 910.049,596.127 906.680,596.127 C903.311,596.127 900.578,593.394 900.578,590.025 C900.578,586.656 903.311,583.924 906.680,583.924 C910.049,583.924 912.781,586.656 912.781,590.025 Z"/>
<path fill-rule="evenodd"  fill="rgb(69, 90, 100)"
 d="M906.451,690.797 C903.077,690.797 900.349,688.069 900.349,684.695 C900.349,681.321 903.077,678.594 906.451,678.594 C909.825,678.594 912.552,681.321 912.552,684.695 C912.552,688.069 909.825,690.797 906.451,690.797 Z"/>
<path fill-rule="evenodd"  fill="rgb(69, 90, 100)"
 d="M1076.698,590.415 C1076.698,593.784 1073.965,596.517 1070.596,596.517 C1067.228,596.517 1064.495,593.784 1064.495,590.415 C1064.495,587.046 1067.228,584.314 1070.596,584.314 C1073.965,584.314 1076.698,587.046 1076.698,590.415 Z"/>
<path fill-rule="evenodd"  fill="rgb(69, 90, 100)"
 d="M1076.138,495.541 C1076.138,498.910 1073.405,501.643 1070.036,501.643 C1066.667,501.643 1063.935,498.910 1063.935,495.541 C1063.935,492.172 1066.667,489.440 1070.036,489.440 C1073.405,489.440 1076.138,492.172 1076.138,495.541 Z"/>
<path fill-rule="evenodd"  fill="rgb(38, 50, 56)"
 d="M1164.734,714.074 C1163.479,716.849 1158.871,717.494 1156.197,717.579 C1152.124,717.715 1148.373,715.882 1144.758,714.236 C1142.212,713.081 1139.743,711.757 1137.231,710.518 C1134.745,709.297 1132.224,707.862 1129.500,707.251 C1126.250,706.522 1120.539,706.165 1119.410,710.298 C1118.188,714.762 1124.315,718.512 1127.201,720.659 C1130.010,722.747 1134.049,725.165 1135.458,728.577 C1137.172,732.727 1131.537,734.033 1128.567,734.194 C1120.132,734.644 1111.841,731.878 1104.085,728.857 C1092.959,724.520 1081.885,719.768 1070.242,716.959 C1060.509,714.609 1045.353,712.275 1039.726,723.112 C1039.616,723.324 1039.964,723.731 1040.108,723.485 C1046.210,713.471 1060.178,715.542 1069.792,717.867 C1081.563,720.710 1092.730,725.547 1103.983,729.909 C1111.510,732.820 1119.410,735.357 1127.566,735.213 C1131.291,735.145 1138.810,733.567 1136.484,728.161 C1135.279,725.352 1132.411,723.273 1130.069,721.474 C1127.184,719.259 1123.917,717.214 1121.642,714.320 C1120.191,712.479 1119.733,709.789 1122.211,708.499 C1124.324,707.404 1127.243,707.777 1129.458,708.320 C1132.852,709.152 1136.069,711.112 1139.175,712.683 C1142.043,714.125 1144.928,715.517 1147.898,716.747 C1151.344,718.173 1154.789,718.953 1158.506,718.334 C1160.958,717.927 1164.607,717.036 1165.617,714.431 C1165.821,713.913 1164.947,713.599 1164.734,714.074 L1164.734,714.074 Z"/>
<path fill-rule="evenodd"  fill="rgb(154, 74, 77)"
 d="M1223.925,543.385 C1219.580,548.579 1212.409,555.588 1208.336,560.697 C1206.197,563.379 1204.984,566.705 1205.035,570.133 C1205.069,572.679 1205.764,574.801 1208.251,573.715 C1210.050,572.934 1211.187,572.000 1213.809,569.412 C1216.168,567.087 1227.574,556.395 1227.574,556.395 C1227.574,556.395 1229.712,543.258 1233.234,542.189 C1236.756,541.120 1239.760,535.493 1239.760,535.493 C1234.015,534.917 1229.432,536.801 1223.925,543.385 Z"/>
<path fill-rule="evenodd"  fill="rgb(230, 230, 230)"
 d="M1161.467,685.535 C1161.476,685.501 1161.493,685.468 1161.501,685.434 L1214.904,487.403 C1214.913,487.394 1214.913,487.394 1214.913,487.386 L1214.929,487.335 C1214.946,487.293 1214.955,487.242 1214.980,487.191 C1215.065,486.919 1215.193,486.639 1215.362,486.393 C1215.532,486.122 1215.736,485.867 1215.973,485.621 C1216.703,484.891 1217.772,484.297 1219.156,483.941 C1223.908,482.676 1230.569,484.484 1234.040,487.963 C1235.398,489.329 1236.060,490.747 1236.085,492.036 C1236.094,492.401 1236.051,492.758 1235.958,493.089 L1183.073,689.202 L1182.521,691.255 L1182.513,691.255 L1182.513,691.264 C1182.114,692.800 1180.663,694.047 1178.312,694.692 C1173.543,695.948 1166.865,694.149 1163.402,690.669 C1161.662,688.930 1161.043,687.088 1161.467,685.535 Z"/>
<path fill-rule="evenodd"  fill="rgb(69, 90, 100)"
 d="M1163.258,713.743 L1163.258,713.743 L1164.599,708.423 L1164.599,708.423 C1164.658,708.151 1164.896,707.930 1165.303,707.820 C1166.084,707.616 1167.187,707.913 1167.755,708.482 C1168.044,708.771 1168.137,709.067 1168.069,709.330 L1168.069,709.330 L1166.746,714.642 L1166.746,714.642 C1166.661,714.923 1166.508,715.194 1166.287,715.415 C1165.583,716.119 1164.437,716.119 1163.733,715.406 C1163.283,714.965 1163.122,714.329 1163.258,713.743 Z"/>
<path fill-rule="evenodd"  fill="rgb(38, 50, 56)"
 d="M1163.215,714.091 L1163.215,714.074 C1163.224,713.972 1163.232,713.862 1163.249,713.760 C1163.258,713.752 1163.249,713.743 1163.258,713.743 C1163.648,714.838 1165.787,715.551 1166.703,714.753 C1166.695,714.787 1166.686,714.829 1166.669,714.855 C1166.661,714.889 1166.635,714.948 1166.635,714.948 C1166.559,715.126 1166.440,715.279 1166.296,715.424 C1165.592,716.128 1164.446,716.119 1163.742,715.406 C1163.368,715.050 1163.190,714.566 1163.215,714.091 Z"/>
<path fill-rule="evenodd"  fill="rgb(224, 224, 224)"
 d="M1163.207,704.001 C1165.184,705.995 1168.994,707.022 1171.710,706.301 C1172.737,706.029 1173.467,705.546 1173.857,704.935 L1181.749,692.706 C1181.036,693.580 1179.865,694.267 1178.295,694.701 C1173.526,695.965 1166.856,694.157 1163.385,690.678 C1162.197,689.490 1161.544,688.243 1161.382,687.080 L1162.027,701.600 C1162.027,701.693 1162.036,701.795 1162.044,701.888 C1162.121,702.559 1162.494,703.288 1163.207,704.001 Z"/>
<path fill-rule="evenodd"  opacity="0.102" fill="rgb(0, 0, 0)"
 d="M1163.733,697.603 C1166.186,700.063 1170.912,701.345 1174.290,700.454 C1175.953,700.004 1176.980,699.113 1177.268,698.027 C1177.591,696.924 1177.183,695.625 1175.936,694.370 C1173.501,691.891 1168.774,690.619 1165.396,691.510 C1163.699,691.960 1162.664,692.859 1162.384,693.971 C1162.078,695.074 1162.511,696.381 1163.733,697.603 Z"/>
<path fill-rule="evenodd"  fill="rgb(224, 224, 224)"
 d="M1163.207,704.001 C1165.184,705.995 1168.994,707.022 1171.710,706.301 C1172.737,706.029 1173.467,705.546 1173.857,704.935 L1181.749,692.706 C1181.036,693.580 1179.865,694.267 1178.295,694.701 C1173.526,695.965 1166.856,694.157 1163.385,690.678 C1162.197,689.490 1161.544,688.243 1161.382,687.080 L1162.027,701.600 C1162.027,701.693 1162.036,701.795 1162.044,701.888 C1162.121,702.559 1162.494,703.288 1163.207,704.001 Z"/>
<path fill-rule="evenodd"  fill="rgb(39, 222, 191)"
 d="M1162.927,708.253 L1162.927,708.253 L1162.910,708.253 L1162.316,695.006 C1162.307,694.887 1162.290,694.768 1162.299,694.649 C1162.299,693.249 1163.377,692.061 1165.396,691.527 C1168.748,690.636 1173.458,691.908 1175.911,694.370 C1177.328,695.795 1177.676,697.297 1177.082,698.494 C1177.065,698.528 1177.048,698.544 1177.039,698.570 L1176.836,698.875 L1169.571,710.120 L1169.563,710.120 C1169.342,710.468 1168.935,710.739 1168.350,710.900 C1166.822,711.308 1164.675,710.722 1163.563,709.602 C1163.122,709.144 1162.919,708.677 1162.927,708.253 Z"/>
<path fill-rule="evenodd"  opacity="0.102" fill="rgb(0, 0, 0)"
 d="M1162.927,708.253 L1162.927,708.253 L1162.910,708.253 L1162.316,695.006 C1162.307,694.887 1162.290,694.768 1162.299,694.649 C1162.299,693.249 1163.377,692.061 1165.396,691.527 C1168.748,690.636 1173.458,691.908 1175.911,694.370 C1177.328,695.795 1177.676,697.297 1177.082,698.494 C1177.065,698.528 1177.048,698.544 1177.039,698.570 L1176.836,698.875 L1169.571,710.120 L1169.563,710.120 C1169.342,710.468 1168.935,710.739 1168.350,710.900 C1166.822,711.308 1164.675,710.722 1163.563,709.602 C1163.122,709.144 1162.919,708.677 1162.927,708.253 Z"/>
<path fill-rule="evenodd"  fill="rgb(39, 222, 191)"
 d="M1163.733,697.603 C1166.186,700.063 1170.912,701.345 1174.290,700.454 C1175.953,700.004 1176.980,699.113 1177.268,698.027 C1177.591,696.924 1177.183,695.625 1175.936,694.370 C1173.501,691.891 1168.774,690.619 1165.396,691.510 C1163.699,691.960 1162.664,692.859 1162.384,693.971 C1162.078,695.074 1162.511,696.381 1163.733,697.603 Z"/>
<path fill-rule="evenodd"  fill="rgb(39, 222, 191)"
 d="M1163.733,697.603 C1166.186,700.063 1170.912,701.345 1174.290,700.454 C1175.953,700.004 1176.980,699.113 1177.268,698.027 C1177.591,696.924 1177.183,695.625 1175.936,694.370 C1173.501,691.891 1168.774,690.619 1165.396,691.510 C1163.699,691.960 1162.664,692.859 1162.384,693.971 C1162.078,695.074 1162.511,696.381 1163.733,697.603 Z"/>
<path fill-rule="evenodd"  opacity="0.051" fill="rgb(0, 0, 0)"
 d="M1162.375,693.979 C1162.613,693.037 1163.402,692.256 1164.658,691.756 C1167.815,694.132 1172.525,695.430 1176.488,695.014 C1177.294,696.067 1177.540,697.119 1177.268,698.035 C1176.980,699.122 1175.961,700.004 1174.290,700.462 C1170.912,701.354 1166.186,700.080 1163.733,697.611 C1162.511,696.381 1162.078,695.074 1162.375,693.979 Z"/>
<path fill-rule="evenodd"  fill="rgb(39, 222, 191)"
 d="M1163.572,709.602 C1164.692,710.722 1166.830,711.299 1168.366,710.892 C1168.944,710.730 1169.351,710.459 1169.572,710.111 L1169.589,710.111 L1173.093,704.680 C1172.720,705.121 1172.126,705.469 1171.337,705.682 C1168.876,706.335 1165.439,705.401 1163.657,703.619 C1163.046,703.008 1162.706,702.372 1162.630,701.769 L1162.919,708.261 L1162.935,708.261 C1162.919,708.677 1163.122,709.152 1163.572,709.602 Z"/>
<path fill-rule="evenodd"  fill="rgb(250, 250, 250)"
 d="M1215.761,511.588 C1215.905,511.028 1216.423,510.587 1217.263,510.358 C1218.952,509.917 1221.311,510.553 1222.524,511.784 C1223.144,512.411 1223.365,513.056 1223.203,513.608 L1223.203,513.608 L1214.505,545.736 C1214.565,545.235 1214.335,544.659 1213.792,544.115 C1212.562,542.876 1210.177,542.231 1208.497,542.681 C1207.725,542.885 1207.233,543.284 1207.046,543.767 L1215.761,511.588 Z"/>
<path fill-rule="evenodd"  fill="rgb(224, 224, 224)"
 d="M1216.440,513.404 C1217.662,514.635 1220.021,515.271 1221.710,514.830 C1222.541,514.601 1223.051,514.160 1223.195,513.616 C1223.356,513.065 1223.152,512.411 1222.524,511.792 C1221.311,510.553 1218.943,509.917 1217.263,510.366 C1216.415,510.596 1215.897,511.037 1215.761,511.597 C1215.617,512.140 1215.829,512.793 1216.440,513.404 Z"/>
<path fill-rule="evenodd"  fill="rgb(39, 222, 191)"
 d="M1213.368,497.298 L1213.368,497.298 L1213.394,497.204 C1213.402,497.162 1213.419,497.111 1213.427,497.069 L1215.931,487.836 C1215.956,487.734 1215.982,487.641 1216.007,487.539 L1216.024,487.471 L1216.033,487.471 C1216.482,486.172 1217.747,485.103 1219.775,484.569 C1224.052,483.431 1230.043,485.061 1233.166,488.192 C1234.736,489.771 1235.279,491.426 1234.889,492.834 L1234.889,492.834 L1232.351,502.228 C1232.343,502.254 1232.343,502.270 1232.334,502.296 L1232.317,502.373 L1232.317,502.373 C1231.902,503.722 1230.612,504.825 1228.533,505.376 C1224.256,506.514 1218.264,504.884 1215.142,501.753 C1213.631,500.242 1213.071,498.656 1213.368,497.298 Z"/>
<path fill-rule="evenodd"  opacity="0.051" fill="rgb(0, 0, 0)"
 d="M1213.368,497.298 L1213.368,497.298 L1213.394,497.204 C1213.402,497.162 1213.419,497.111 1213.427,497.069 L1215.931,487.836 C1215.956,487.734 1215.982,487.641 1216.007,487.539 L1216.024,487.471 L1216.033,487.471 C1216.482,486.172 1217.747,485.103 1219.775,484.569 C1224.052,483.431 1230.043,485.061 1233.166,488.192 C1234.736,489.771 1235.279,491.426 1234.889,492.834 L1234.889,492.834 L1232.351,502.228 C1232.343,502.254 1232.343,502.270 1232.334,502.296 L1232.317,502.373 L1232.317,502.373 C1231.902,503.722 1230.612,504.825 1228.533,505.376 C1224.256,506.514 1218.264,504.884 1215.142,501.753 C1213.631,500.242 1213.071,498.656 1213.368,497.298 Z"/>
<path fill-rule="evenodd"  fill="rgb(69, 90, 100)"
 d="M1166.186,695.082 L1169.809,681.691 L1206.868,544.014 C1206.859,543.997 1206.868,543.971 1206.885,543.963 L1206.961,543.674 C1207.148,543.190 1207.640,542.800 1208.412,542.588 C1210.101,542.147 1212.477,542.783 1213.707,544.022 C1214.251,544.565 1214.480,545.134 1214.420,545.643 C1214.429,545.651 1214.420,545.660 1214.420,545.660 L1214.318,546.025 L1177.251,683.694 L1173.636,697.102 C1173.492,697.645 1172.983,698.086 1172.151,698.316 C1170.938,698.638 1169.368,698.392 1168.137,697.772 C1167.959,697.687 1167.806,697.594 1167.645,697.501 C1167.357,697.323 1167.102,697.119 1166.881,696.898 C1166.270,696.279 1166.033,695.625 1166.186,695.082 Z"/>
<path fill-rule="evenodd"  fill="rgb(38, 50, 56)"
 d="M1207.614,545.634 C1208.836,546.865 1211.196,547.501 1212.884,547.060 C1213.716,546.831 1214.225,546.390 1214.369,545.847 C1214.531,545.295 1214.327,544.641 1213.699,544.022 C1212.477,542.783 1210.118,542.147 1208.438,542.596 C1207.589,542.826 1207.071,543.267 1206.936,543.827 C1206.783,544.370 1207.003,545.024 1207.614,545.634 Z"/>
<path fill-rule="evenodd"  fill="rgb(38, 50, 56)"
 d="M1166.186,695.082 L1166.737,693.054 C1168.994,694.225 1171.651,694.938 1174.188,695.065 L1173.636,697.102 C1173.492,697.645 1172.983,698.086 1172.151,698.316 C1170.938,698.638 1169.368,698.392 1168.137,697.772 C1167.645,697.535 1167.221,697.238 1166.881,696.898 C1166.270,696.279 1166.033,695.625 1166.186,695.082 Z"/>
<path fill-rule="evenodd"  fill="rgb(224, 224, 224)"
 d="M1216.813,492.562 C1220.276,496.042 1226.954,497.841 1231.723,496.585 C1234.074,495.948 1235.525,494.701 1235.924,493.157 C1236.382,491.604 1235.797,489.762 1234.040,487.989 C1230.595,484.484 1223.916,482.685 1219.156,483.949 C1216.762,484.586 1215.294,485.858 1214.896,487.428 C1214.471,488.990 1215.091,490.831 1216.813,492.562 Z"/>
<path fill-rule="evenodd"  fill="rgb(39, 222, 191)"
 d="M1217.102,491.519 C1220.564,494.998 1227.243,496.797 1232.012,495.541 C1234.363,494.905 1235.814,493.657 1236.213,492.113 L1236.238,492.045 L1236.807,489.991 C1236.815,489.940 1236.823,489.915 1236.832,489.873 C1236.857,489.762 1236.874,489.660 1236.891,489.542 C1236.917,489.397 1236.925,489.236 1236.925,489.092 C1236.925,488.998 1236.925,488.905 1236.917,488.803 C1236.925,488.786 1236.925,488.769 1236.917,488.752 C1236.908,488.668 1236.900,488.566 1236.883,488.464 C1236.832,488.048 1236.713,487.632 1236.527,487.199 C1236.476,487.080 1236.416,486.953 1236.357,486.843 C1236.331,486.775 1236.306,486.724 1236.263,486.665 C1236.213,486.554 1236.153,486.453 1236.085,486.359 C1235.780,485.850 1235.381,485.349 1234.880,484.857 C1231.418,481.369 1224.748,479.570 1220.004,480.826 C1218.612,481.191 1217.552,481.777 1216.813,482.515 L1216.796,482.532 C1216.686,482.642 1216.576,482.769 1216.482,482.888 L1216.219,483.253 C1216.169,483.330 1216.126,483.415 1216.084,483.491 L1215.999,483.635 C1215.948,483.737 1215.905,483.839 1215.871,483.949 L1215.846,484.017 C1215.812,484.119 1215.770,484.221 1215.744,484.331 L1215.252,486.122 C1215.269,486.062 1215.210,486.223 1215.176,486.368 C1214.760,487.946 1215.379,489.787 1217.102,491.519 Z"/>
<path fill-rule="evenodd"  opacity="0.302" fill="rgb(255, 255, 255)"
 d="M1217.687,489.456 C1221.150,492.936 1227.828,494.735 1232.589,493.479 C1234.940,492.843 1236.391,491.595 1236.790,490.059 C1237.248,488.506 1236.662,486.665 1234.906,484.891 C1231.460,481.395 1224.790,479.587 1220.021,480.852 C1217.628,481.488 1216.168,482.761 1215.761,484.331 C1215.345,485.875 1215.965,487.725 1217.687,489.456 Z"/>
<path fill-rule="evenodd"  fill="rgb(38, 50, 56)"
 d="M1244.622,530.699 L1244.622,530.699 C1254.033,530.699 1261.671,523.070 1261.671,513.650 L1261.671,512.708 C1261.671,504.732 1255.204,498.265 1247.227,498.265 L1242.034,498.265 C1234.057,498.265 1227.591,504.732 1227.591,512.708 L1227.591,513.650 C1227.582,523.070 1235.211,530.699 1244.622,530.699 Z"/>
<path fill-rule="evenodd"  fill="rgb(38, 50, 56)"
 d="M1268.587,532.430 L1268.587,532.430 C1264.310,532.430 1260.848,528.968 1260.848,524.691 L1260.848,509.297 L1260.848,509.297 C1265.124,509.297 1268.587,512.759 1268.587,517.036 L1268.587,532.430 Z"/>
<path fill-rule="evenodd"  fill="rgb(38, 50, 56)"
 d="M1227.081,699.308 C1225.104,701.472 1222.923,703.212 1220.581,704.969 C1220.233,705.231 1219.868,705.512 1219.682,705.902 C1219.376,706.539 1218.901,708.117 1221.803,709.135 C1224.646,710.128 1228.185,709.890 1230.773,708.278 C1233.157,706.784 1233.268,703.670 1235.525,701.897 C1237.197,700.581 1239.284,700.242 1240.634,698.527 C1241.576,697.331 1241.330,695.744 1240.837,693.775 C1240.303,691.629 1240.057,689.999 1239.344,690.160 L1239.463,691.153 C1238.572,692.570 1233.972,692.986 1231.927,692.010 C1231.919,692.002 1228.371,697.891 1227.081,699.308 Z"/>
<path fill-rule="evenodd"  fill="rgb(177, 102, 104)"
 d="M1225.062,701.319 C1225.062,701.319 1225.062,701.311 1225.062,701.302 C1225.749,700.666 1226.428,700.013 1227.081,699.308 C1227.913,698.400 1229.687,695.625 1230.841,693.775 C1231.545,692.647 1232.411,691.230 1232.445,689.728 C1232.496,687.827 1232.309,684.441 1232.309,684.441 L1239.123,683.991 L1239.454,691.145 L1239.454,691.145 C1239.632,692.766 1238.292,694.208 1235.915,696.245 C1233.539,698.290 1230.527,703.059 1228.380,704.256 C1226.233,705.452 1224.697,705.410 1223.780,704.799 C1222.847,704.162 1222.754,703.679 1225.062,701.319 Z"/>
<path fill-rule="evenodd"  fill="rgb(38, 50, 56)"
 d="M1249.782,706.123 C1247.804,708.286 1245.624,710.026 1243.281,711.783 C1242.933,712.046 1242.569,712.326 1242.382,712.716 C1242.076,713.353 1241.601,714.931 1244.503,715.950 C1247.346,716.942 1250.885,716.705 1253.473,715.093 C1255.858,713.599 1255.968,710.485 1258.225,708.711 C1259.897,707.396 1261.985,707.056 1263.334,705.342 C1264.276,704.146 1264.030,702.559 1263.538,700.590 C1263.003,698.443 1262.757,696.813 1262.044,696.975 L1262.163,697.968 C1261.272,699.385 1256.672,699.801 1254.627,698.825 C1254.610,698.816 1251.072,704.705 1249.782,706.123 Z"/>
<path fill-rule="evenodd"  fill="rgb(177, 102, 104)"
 d="M1247.762,708.134 C1247.762,708.134 1247.762,708.125 1247.762,708.117 C1248.449,707.480 1249.128,706.827 1249.782,706.123 C1250.613,705.215 1252.387,702.440 1253.541,700.590 C1254.245,699.461 1255.026,697.968 1255.136,696.474 C1255.255,694.802 1255.170,691.331 1255.170,691.331 L1261.985,691.365 L1262.154,697.959 L1262.154,697.959 C1262.333,699.580 1260.992,701.014 1258.616,703.059 C1256.240,705.104 1253.227,709.873 1251.080,711.070 C1248.933,712.266 1247.397,712.224 1246.481,711.613 C1245.539,710.977 1245.445,710.493 1247.762,708.134 Z"/>
<path fill-rule="evenodd"  fill="rgb(55, 71, 79)"
 d="M1262.061,580.919 C1268.001,593.894 1261.246,643.088 1261.246,643.088 C1261.425,645.193 1263.283,648.469 1263.495,654.901 C1263.775,663.158 1262.307,693.640 1262.307,693.640 C1262.307,693.640 1258.726,695.804 1254.534,693.792 C1254.534,693.792 1247.499,652.406 1246.124,641.527 C1244.928,632.023 1242.628,609.695 1242.628,609.695 L1237.901,641.476 C1237.901,641.476 1240.328,646.780 1240.456,651.575 C1240.625,658.007 1239.675,687.852 1239.675,687.852 C1239.675,687.852 1236.798,688.862 1231.774,688.124 C1231.774,688.124 1224.621,647.730 1223.942,640.025 C1223.543,635.425 1226.980,578.976 1226.980,578.976 L1262.061,580.919 Z"/>
<path fill-rule="evenodd"  fill="rgb(38, 50, 56)"
 d="M1242.636,609.687 L1240.710,599.079 C1240.710,599.079 1232.555,597.391 1228.847,593.911 C1228.847,593.911 1232.725,598.740 1238.495,600.319 L1240.659,609.594 L1238.521,637.326 L1242.636,609.687 Z"/>
<path fill-rule="evenodd"  fill="rgb(245, 245, 245)"
 d="M1250.469,535.799 L1250.469,535.799 C1255.680,536.520 1258.480,537.666 1260.160,542.571 C1261.263,545.778 1260.966,550.488 1259.855,553.696 L1255.298,567.011 C1255.298,567.011 1259.795,574.012 1262.061,580.928 C1248.746,588.362 1230.994,584.407 1226.988,578.985 C1226.818,577.830 1227.896,572.272 1227.574,566.366 C1227.226,560.069 1226.216,552.847 1227.209,548.961 C1229.042,541.739 1234.083,537.029 1239.760,535.502 L1250.469,535.799 Z"/>
<path fill-rule="evenodd"  fill="rgb(177, 102, 104)"
 d="M1233.183,505.156 C1231.384,506.216 1229.161,510.748 1229.373,520.244 C1229.559,528.289 1232.165,530.275 1233.480,530.852 C1234.787,531.429 1237.316,531.072 1239.768,530.665 L1239.768,535.493 C1239.768,535.493 1236.374,539.431 1236.586,541.646 C1236.798,543.861 1241.482,544.387 1244.665,542.223 C1247.838,540.059 1249.875,536.766 1249.875,536.766 L1249.875,525.098 C1249.875,525.098 1251.530,527.313 1254.245,525.514 C1256.952,523.715 1257.063,519.260 1255.484,517.656 C1253.906,516.052 1250.512,516.561 1249.875,518.776 C1249.875,518.776 1245.963,518.920 1240.744,516.052 C1235.534,513.184 1233.531,508.278 1233.183,505.156 Z"/>
<path fill-rule="evenodd"  fill="rgb(38, 50, 56)"
 d="M1238.359,518.224 C1238.334,518.802 1238.758,519.294 1239.318,519.319 C1239.878,519.345 1240.354,518.895 1240.379,518.318 C1240.405,517.741 1239.980,517.249 1239.420,517.223 C1238.860,517.197 1238.385,517.639 1238.359,518.224 Z"/>
<path fill-rule="evenodd"  fill="rgb(154, 74, 77)"
 d="M1238.088,525.039 L1235.737,525.785 C1235.932,526.456 1236.620,526.838 1237.265,526.625 C1237.910,526.430 1238.283,525.718 1238.088,525.039 Z"/>
<path fill-rule="evenodd"  fill="rgb(38, 50, 56)"
 d="M1230.060,515.118 L1232.105,513.701 C1231.732,513.116 1230.968,512.963 1230.408,513.354 C1229.840,513.744 1229.687,514.533 1230.060,515.118 Z"/>
<path fill-rule="evenodd"  fill="rgb(38, 50, 56)"
 d="M1230.535,517.494 C1230.510,518.072 1230.934,518.564 1231.494,518.589 C1232.054,518.615 1232.530,518.165 1232.555,517.588 C1232.580,517.011 1232.156,516.519 1231.596,516.493 C1231.036,516.459 1230.561,516.909 1230.535,517.494 Z"/>
<path fill-rule="evenodd"  fill="rgb(154, 74, 77)"
 d="M1235.305,516.909 L1235.143,523.002 L1231.944,522.009 L1235.305,516.909 Z"/>
<path fill-rule="evenodd"  fill="rgb(154, 74, 77)"
 d="M1239.768,530.665 C1242.356,530.326 1247.677,528.798 1248.509,526.694 C1248.509,526.694 1248.229,528.017 1246.642,529.375 C1245.055,530.741 1239.768,532.277 1239.768,532.277 L1239.768,530.665 L1239.768,530.665 Z"/>
<path fill-rule="evenodd"  fill="rgb(177, 102, 104)"
 d="M1198.823,575.005 C1200.401,575.598 1201.988,575.641 1204.152,576.659 C1206.053,577.559 1206.851,577.890 1208.811,577.991 C1210.932,578.094 1216.864,575.565 1222.083,573.138 C1228.236,570.278 1234.787,565.093 1237.299,562.250 C1242.416,556.471 1246.778,549.249 1249.026,545.388 C1250.885,542.206 1252.794,537.589 1255.722,537.013 C1260.848,537.547 1262.935,546.483 1259.609,551.999 C1256.282,557.515 1250.367,564.737 1244.062,570.846 C1241.007,573.808 1235.406,577.024 1227.387,580.453 C1221.336,583.041 1216.482,584.653 1211.196,586.028 C1209.592,586.444 1208.455,587.046 1205.442,588.081 C1204.229,588.497 1202.905,588.998 1201.623,589.032 C1199.994,589.075 1198.348,588.939 1196.769,588.515 C1194.784,587.980 1192.891,586.987 1191.457,585.510 C1190.668,584.696 1190.014,583.737 1189.683,582.650 C1189.344,581.573 1189.344,580.368 1189.794,579.324 C1189.887,579.112 1189.997,578.900 1190.184,578.764 C1190.515,578.518 1190.973,578.560 1191.389,578.620 C1193.680,578.951 1196.107,579.655 1198.407,579.740 C1200.359,579.816 1201.742,579.596 1201.496,579.299 C1201.250,578.993 1200.104,579.027 1198.619,578.195 C1197.211,577.398 1196.294,575.768 1196.812,575.013 C1197.321,574.258 1197.236,574.410 1198.823,575.005 Z"/>
<path fill-rule="evenodd"  fill="rgb(177, 102, 104)"
 d="M1198.755,553.628 C1198.755,553.628 1200.877,551.939 1204.907,552.601 C1206.859,552.924 1206.113,560.298 1199.841,562.360 C1195.759,563.701 1194.928,563.005 1193.613,566.366 C1193.613,566.366 1191.152,565.857 1191.746,562.097 C1192.348,558.346 1193.986,554.918 1196.718,551.694 C1198.517,549.572 1198.636,547.781 1199.519,548.384 C1200.520,549.071 1199.909,550.819 1199.909,550.819 L1198.755,553.628 Z"/>
<path fill-rule="evenodd"  opacity="0.22" fill="rgb(39, 222, 191)"
 d="M264.000,889.000 C239.944,889.000 220.500,869.555 220.500,845.500 C220.500,821.444 239.944,802.000 264.000,802.000 C288.055,802.000 307.500,821.444 307.500,845.500 C307.500,869.555 288.055,889.000 264.000,889.000 Z"/>
<path fill-rule="evenodd"  opacity="0.059" fill="rgb(39, 222, 191)"
 d="M811.000,807.000 C786.944,807.000 767.500,787.555 767.500,763.500 C767.500,739.444 786.944,720.000 811.000,720.000 C835.055,720.000 854.500,739.444 854.500,763.500 C854.500,787.555 835.055,807.000 811.000,807.000 Z"/>
<path fill-rule="evenodd"  stroke="rgb(39, 222, 191)" stroke-width="9px" stroke-linecap="butt" stroke-linejoin="miter" opacity="0.22" fill="none"
 d="M598.000,914.000 C587.216,914.000 578.500,905.283 578.500,894.500 C578.500,883.716 587.216,875.000 598.000,875.000 C608.783,875.000 617.500,883.716 617.500,894.500 C617.500,905.283 608.783,914.000 598.000,914.000 Z"/>
<path fill-rule="evenodd"  stroke="rgb(39, 222, 191)" stroke-width="9px" stroke-linecap="butt" stroke-linejoin="miter" opacity="0.22" fill="none"
 d="M1145.000,772.000 C1134.216,772.000 1125.500,763.283 1125.500,752.500 C1125.500,741.716 1134.216,733.000 1145.000,733.000 C1155.783,733.000 1164.500,741.716 1164.500,752.500 C1164.500,763.283 1155.783,772.000 1145.000,772.000 Z"/>
<path fill-rule="evenodd"  stroke="rgb(39, 222, 191)" stroke-width="9px" stroke-linecap="butt" stroke-linejoin="miter" opacity="0.22" fill="none"
 d="M1335.000,1013.000 C1324.216,1013.000 1315.500,1004.283 1315.500,993.500 C1315.500,982.716 1324.216,974.000 1335.000,974.000 C1345.783,974.000 1354.500,982.716 1354.500,993.500 C1354.500,1004.283 1345.783,1013.000 1335.000,1013.000 Z"/>
<path fill-rule="evenodd"  stroke="rgb(39, 222, 191)" stroke-width="9px" stroke-linecap="butt" stroke-linejoin="miter" opacity="0.22" fill="none"
 d="M589.000,501.000 C578.216,501.000 569.500,492.283 569.500,481.500 C569.500,470.716 578.216,462.000 589.000,462.000 C599.783,462.000 608.500,470.716 608.500,481.500 C608.500,492.283 599.783,501.000 589.000,501.000 Z"/>
<path fill-rule="evenodd"  stroke="rgb(39, 222, 191)" stroke-width="9px" stroke-linecap="butt" stroke-linejoin="miter" opacity="0.22" fill="none"
 d="M1136.000,419.000 C1125.216,419.000 1116.500,410.283 1116.500,399.500 C1116.500,388.716 1125.216,380.000 1136.000,380.000 C1146.783,380.000 1155.500,388.716 1155.500,399.500 C1155.500,410.283 1146.783,419.000 1136.000,419.000 Z"/>
<path fill-rule="evenodd"  stroke="rgb(39, 222, 191)" stroke-width="9px" stroke-linecap="butt" stroke-linejoin="miter" opacity="0.22" fill="none"
 d="M1326.000,660.000 C1315.216,660.000 1306.500,651.283 1306.500,640.500 C1306.500,629.716 1315.216,621.000 1326.000,621.000 C1336.783,621.000 1345.500,629.716 1345.500,640.500 C1345.500,651.283 1336.783,660.000 1326.000,660.000 Z"/>
<path fill-rule="evenodd"  stroke="rgb(255, 231, 204)" stroke-width="9px" stroke-linecap="butt" stroke-linejoin="miter" opacity="0.22" fill="none"
 d="M430.000,391.000 C419.216,391.000 410.500,382.283 410.500,371.500 C410.500,360.716 419.216,352.000 430.000,352.000 C440.783,352.000 449.500,360.716 449.500,371.500 C449.500,382.283 440.783,391.000 430.000,391.000 Z"/>
</svg>