<?xml version="1.0" standalone="no"?>
<!DOCTYPE svg PUBLIC "-//W3C//DTD SVG 20010904//EN"
 "http://www.w3.org/TR/2001/REC-SVG-20010904/DTD/svg10.dtd">
<svg version="1.0" xmlns="http://www.w3.org/2000/svg"
 width="142.000000pt" height="142.000000pt" viewBox="0 0 142.000000 142.000000"
 preserveAspectRatio="xMidYMid meet">
<metadata>
Created by potrace 1.11, written by Peter Selinger 2001-2013
</metadata>
<g transform="translate(0.000000,142.000000) scale(0.100000,-0.100000)"
fill="#000000" stroke="none">
<path d="M364 752 c-102 -65 -108 -193 -11 -263 118 -85 280 31 239 170 -7 20
-27 52 -47 71 -30 29 -43 34 -92 37 -45 3 -65 0 -89 -15z m140 -67 c21 -19 26
-33 26 -70 0 -76 -63 -116 -133 -84 -51 23 -63 108 -22 153 33 35 91 36 129 1z"/>
<path d="M824 752 c-102 -65 -108 -193 -11 -263 118 -85 280 31 239 170 -7 20
-27 52 -47 71 -30 29 -43 34 -92 37 -45 3 -65 0 -89 -15z m140 -67 c21 -19 26
-33 26 -70 0 -76 -63 -116 -133 -84 -51 23 -63 108 -22 153 33 35 91 36 129 1z"/>
</g>
</svg>
